<?xml version="1.0" standalone="no"?>
<!DOCTYPE svg PUBLIC "-//W3C//DTD SVG 20010904//EN"
 "http://www.w3.org/TR/2001/REC-SVG-20010904/DTD/svg10.dtd">
<svg version="1.0" xmlns="http://www.w3.org/2000/svg"
 width="200.000000pt" height="200.000000pt" viewBox="0 0 200.000000 200.000000"
 preserveAspectRatio="xMidYMid meet">
<metadata>
Created by potrace 1.11, written by Peter Selinger 2001-2013
</metadata>
<g transform="translate(0.000000,200.000000) scale(0.100000,-0.100000)"
fill="#000000" stroke="none">
<path d="M695 1729 c-33 -22 -62 -44 -63 -50 -2 -5 -8 -7 -13 -4 -7 5 -56 -20
-69 -35 -3 -4 -12 -10 -20 -13 -8 -4 -28 -16 -45 -27 -16 -11 -37 -23 -45 -27
-8 -4 -36 -19 -61 -35 l-46 -28 -2 -66 c-1 -48 2 -63 10 -58 9 5 9 3 3 -7 -11
-17 -12 -199 -1 -199 5 0 5 -6 1 -12 -9 -14 -12 -108 -4 -108 3 0 4 -56 4
-124 -2 -111 0 -124 15 -119 13 4 14 3 1 -5 -16 -12 -23 -115 -6 -105 5 4 6 1
1 -7 -4 -7 -8 -30 -7 -52 0 -21 1 -69 1 -106 l1 -68 53 -27 c28 -15 72 -39 97
-54 59 -34 132 -73 137 -73 2 0 1 5 -3 12 -4 7 -3 8 5 4 6 -4 9 -11 7 -15 -3
-4 17 -20 44 -34 28 -15 50 -25 50 -22 0 3 9 -4 20 -15 20 -20 60 -27 60 -11
0 5 10 13 22 17 12 4 45 21 73 39 63 40 101 63 193 116 42 24 69 45 65 52 -4
6 0 8 9 4 10 -3 31 8 54 29 22 19 43 34 48 34 5 0 2 8 -5 17 -13 16 -12 17 3
5 14 -11 21 -10 45 5 15 9 31 22 35 28 4 5 8 6 8 1 0 -5 7 -3 15 4 8 7 12 17
8 23 -3 5 -1 7 5 4 14 -9 43 3 36 14 -3 5 2 6 10 3 9 -3 16 -1 16 6 0 6 5 8
12 4 8 -5 9 -2 5 10 -4 10 -3 15 3 11 13 -8 70 22 70 37 0 6 3 9 6 5 11 -10
65 23 58 35 -4 6 -3 9 2 6 5 -3 19 -2 31 3 l23 8 -5 253 c-2 139 -4 256 -5
261 0 4 -10 12 -22 17 -13 6 -50 26 -83 45 -119 68 -118 67 -110 53 3 -7 1 -6
-7 3 -18 22 -74 50 -83 41 -5 -4 -5 -2 -2 4 8 13 -20 27 -34 18 -5 -3 -9 2 -9
11 0 9 -4 14 -9 11 -5 -4 -11 -2 -13 3 -1 5 -10 11 -18 13 -8 2 -23 11 -34 21
-12 10 -31 20 -43 23 -13 4 -23 9 -23 14 0 4 -19 15 -42 26 -24 10 -45 21 -48
24 -17 17 -92 50 -102 44 -6 -4 -8 -3 -4 4 3 6 -8 17 -26 26 -25 13 -34 14
-41 4 -6 -9 -7 -8 -4 4 4 12 -5 22 -34 37 -22 12 -45 18 -51 15 -6 -4 -8 -3
-5 3 6 9 -34 34 -51 32 -4 0 -34 -18 -67 -40z m-14 -62 c-10 -9 -11 -8 -5 6 3
10 9 15 12 12 3 -3 0 -11 -7 -18z m49 19 c0 -3 -4 -8 -10 -11 -5 -3 -10 -1
-10 4 0 6 5 11 10 11 6 0 10 -2 10 -4z m55 -146 c3 -5 1 -10 -4 -10 -6 0 -11
5 -11 10 0 6 2 10 4 10 3 0 8 -4 11 -10z m-384 -33 c-10 -9 -11 -8 -5 6 3 10
9 15 12 12 3 -3 0 -11 -7 -18z m699 19 c0 -2 -8 -10 -17 -17 -16 -13 -17 -12
-4 4 13 16 21 21 21 13z m-289 -43 c13 -16 12 -17 -3 -4 -10 7 -18 15 -18 17
0 8 8 3 21 -13z m-395 -5 c3 -4 -1 -5 -10 -4 -8 1 -18 5 -22 8 -3 4 1 5 10 4
8 -1 18 -5 22 -8z m254 -18 c0 -5 -2 -10 -4 -10 -3 0 -8 5 -11 10 -3 6 -1 10
4 10 6 0 11 -4 11 -10z m-263 -15 c0 -8 -4 -12 -9 -9 -5 3 -6 10 -3 15 9 13
12 11 12 -6z m-33 -3 c3 -5 -1 -9 -9 -9 -8 0 -12 4 -9 9 3 4 7 8 9 8 2 0 6 -4
9 -8z m440 -44 c-3 -4 -9 -8 -15 -8 -5 0 -9 4 -9 8 0 5 7 9 15 9 8 0 12 -4 9
-9z m-207 -33 c0 -8 -4 -15 -9 -15 -10 0 -11 14 -1 23 9 10 10 9 10 -8z m798
6 c3 -5 2 -12 -3 -15 -5 -3 -9 1 -9 9 0 17 3 19 12 6z m-844 -24 c-10 -9 -11
-8 -5 6 3 10 9 15 12 12 3 -3 0 -11 -7 -18z m89 17 c0 -8 -19 -13 -24 -6 -3 5
1 9 9 9 8 0 15 -2 15 -3z m160 2 c0 -3 -4 -8 -10 -11 -5 -3 -10 -1 -10 4 0 6
5 11 10 11 6 0 10 -2 10 -4z m720 -40 c0 -2 -7 -7 -16 -10 -8 -3 -12 -2 -9 4
6 10 25 14 25 6z m-46 -136 c-6 -6 -10 -3 -10 10 0 13 4 16 10 10 7 -7 7 -13
0 -20z m-1118 -65 c-1 -8 -5 -17 -8 -21 -5 -4 -4 16 1 34 3 9 9 -1 7 -13z m44
-1 c0 -8 -19 -13 -24 -6 -3 5 1 9 9 9 8 0 15 -2 15 -3z m1231 -11 c13 -16 12
-17 -3 -4 -17 13 -22 21 -14 21 2 0 10 -8 17 -17z m-111 -117 c-7 -7 -13 -7
-20 0 -6 6 -3 10 10 10 13 0 16 -4 10 -10z m111 -3 c13 -16 12 -17 -3 -4 -17
13 -22 21 -14 21 2 0 10 -8 17 -17z m-111 -33 c0 -5 -2 -10 -4 -10 -3 0 -8 5
-11 10 -3 6 -1 10 4 10 6 0 11 -4 11 -10z m-1129 -47 c13 -16 12 -17 -3 -4
-10 7 -18 15 -18 17 0 8 8 3 21 -13z m1069 -87 c0 -3 -4 -8 -10 -11 -5 -3 -10
-1 -10 4 0 6 5 11 10 11 6 0 10 -2 10 -4z m181 -23 c13 -16 12 -17 -3 -4 -17
13 -22 21 -14 21 2 0 10 -8 17 -17z m-126 -2 c3 -5 2 -12 -3 -15 -5 -3 -9 1
-9 9 0 17 3 19 12 6z m-1041 -51 c-6 -6 -10 -3 -10 10 0 13 4 16 10 10 7 -7 7
-13 0 -20z m1052 8 c3 -4 -1 -5 -10 -4 -8 1 -18 5 -22 8 -3 4 1 5 10 4 8 -1
18 -5 22 -8z m-886 -162 c-7 -7 -13 -7 -20 0 -6 6 -3 10 10 10 13 0 16 -4 10
-10z m0 -80 c-7 -7 -13 -7 -20 0 -6 6 -3 10 10 10 13 0 16 -4 10 -10z m-243
-41 c0 -8 -4 -12 -9 -9 -5 3 -6 10 -3 15 9 13 12 11 12 -6z m599 -75 c0 -12
-4 -16 -9 -11 -5 5 -6 14 -3 20 10 15 12 14 12 -9z m-266 -74 c0 -2 -8 -10
-17 -17 -16 -13 -17 -12 -4 4 13 16 21 21 21 13z"/>
</g>
</svg>
